<?xml version="1.0" encoding="UTF-8"?>
<svg id="Layer_1" data-name="Layer 1" xmlns="http://www.w3.org/2000/svg" viewBox="0 0 604.71 604.71">
  <defs>
    <style>
      .cls-1 {
        fill: #999;
      }

      .cls-1, .cls-2 {
        stroke-width: 0px;
      }

      .cls-2 {
        fill: #ee3b43;
      }
    </style>
  </defs>
  <g>
    <path class="cls-1" d="m128.45,176.67c39.64,22.2,93.61,35.26,150.63,36.41v291.67c-24.44-.97-48.16-6.25-70.61-15.75-24.12-10.2-45.78-24.81-64.39-43.41s-33.21-40.27-43.41-64.39c-10.56-24.97-15.91-51.49-15.91-78.84,0-24.69,4.39-48.8,13.05-71.68,7.39-19.51,17.68-37.64,30.65-54m-2.27-12.94c-32.05,37.22-51.43,85.66-51.43,138.62,0,117.39,95.17,212.56,212.56,212.56.59,0,1.18-.02,1.77-.02V203.15c-.59,0-1.18.01-1.77.01-64.42,0-122.15-15.29-161.13-39.43h0Z"/>
    <path class="cls-1" d="m279.07,99.96v291.67c-56.76,1.17-110.57,14.43-150.18,36.97-28.53-35.77-44.15-80.28-44.15-126.25,0-27.35,5.35-53.88,15.91-78.84,10.2-24.12,24.81-45.78,43.41-64.39s40.27-33.21,64.39-43.41c22.45-9.5,46.17-14.78,70.61-15.75m8.23-10.16c-117.39,0-212.56,95.16-212.56,212.56,0,53.25,19.58,101.93,51.94,139.22,38.97-24.52,96.48-40.03,160.62-40.03.59,0,1.18.01,1.77.01V89.82c-.59,0-1.18-.02-1.77-.02h0Z"/>
    <path class="cls-1" d="m279.07,100.14v404.44c-34.31-2.8-66.5-23.05-91.36-57.75-13.35-18.63-23.85-40.38-31.2-64.64-7.66-25.26-11.54-52.12-11.54-79.84s3.88-54.57,11.54-79.84c7.35-24.26,17.85-46.01,31.2-64.64,24.86-34.69,57.04-54.95,91.36-57.75m8.23-10.33c-84.13,0-152.33,95.16-152.33,212.56s68.2,212.56,152.33,212.56c.59,0,1.18-.02,1.77-.03V89.83c-.59,0-1.18-.03-1.77-.03h0Z"/>
    <path class="cls-1" d="m279.07,101.35v402.01c-5.36-2.01-10.74-5.98-16.08-11.87-8.74-9.65-17.03-24.31-23.97-42.42-14.96-39.03-23.2-91.14-23.2-146.72s8.24-107.69,23.2-146.72c6.94-18.1,15.23-32.77,23.97-42.42,5.33-5.89,10.72-9.85,16.08-11.87m8.23-11.55c-45,0-81.48,95.16-81.48,212.56s36.48,212.56,81.48,212.56c.59,0,1.18-.03,1.77-.06V89.86c-.59-.03-1.18-.06-1.77-.06h0Z"/>
    <path class="cls-1" d="m287.3,293.5c-117.39,0-212.56,3.97-212.56,8.86s95.17,8.86,212.56,8.86c.59,0,1.18,0,1.77,0v-17.71c-.59,0-1.18,0-1.77,0h0Z"/>
  </g>
  <polygon class="cls-2" points="529.97 361.89 499.12 345.21 528.6 265 465.3 278.48 442.44 246.71 363.6 325.1 405.42 173.59 354.92 201.24 308.56 121.02 308.56 476.66 355.53 476.67 434.45 483.7 414.33 446.22 529.97 361.89"/>
  <path class="cls-2" d="m302.36,0c-73.98,0-141.73,26.61-194.27,70.73-3.86-1.57-8.08-2.46-12.5-2.46-18.31,0-33.16,14.85-33.16,33.16s14.85,33.16,33.16,33.16,33.16-14.85,33.16-33.16c0-4.53-.91-8.85-2.56-12.78,47.88-39.52,109.24-63.29,176.17-63.29,152.98,0,277,124.02,277,277s-124.02,277-277,277S25.36,455.34,25.36,302.36c0-57.63,17.65-111.12,47.77-155.45-7.78-3.85-14.43-9.63-19.32-16.72C19.9,179.05,0,238.37,0,302.36c0,166.99,135.37,302.36,302.36,302.36s302.36-135.37,302.36-302.36S469.34,0,302.36,0Z"/>
</svg>